<svg width="42" height="42" viewBox="0 0 42 42" fill="none" xmlns="http://www.w3.org/2000/svg">
<circle cx="21" cy="21" r="21" fill="#E4E4E4"/>
<path d="M31.8971 19.0229C32.0646 18.4416 32.1171 17.8414 32.1171 17.2516C32.1171 13.253 28.8641 10 24.8655 10C23.2878 10 21.7878 10.4982 20.5278 11.4407C19.3101 12.3515 18.3918 13.649 17.9419 15.0946C17.927 15.1424 17.8758 15.2525 17.6686 15.2181C17.6503 15.215 17.6311 15.2155 17.6115 15.2142C17.5434 15.2099 17.4696 15.2061 17.3933 15.2061C15.0219 15.2061 12.9063 16.7396 12.0954 19.0334C12.0834 19.0675 12.0464 19.1479 11.9485 19.1289C11.9386 19.127 11.9287 19.1248 11.9187 19.1229C11.5593 19.0508 11.1909 19.0144 10.8234 19.0144C7.74517 19.0144 5.24097 21.5187 5.24097 24.5969C5.24097 27.6751 7.74517 30.1793 10.8233 30.1793H30.293C33.3713 30.1793 35.8755 27.6751 35.8755 24.5969C35.8755 22.1833 34.2956 20.0247 32.0119 19.2858C31.9556 19.2676 31.8378 19.2287 31.8971 19.0229ZM30.293 29.1409H10.8233C8.31781 29.1409 6.27937 27.1026 6.27937 24.5969C6.27937 22.0913 8.31774 20.0528 10.8233 20.0528C11.1307 20.0528 11.4388 20.0842 11.7389 20.146C11.8369 20.1662 11.9355 20.1764 12.0315 20.1764C12.5177 20.1764 12.8967 19.9103 13.0452 19.4646C13.687 17.5386 15.4342 16.2445 17.3932 16.2445C17.4563 16.2445 17.5254 16.2492 17.5985 16.2541C17.678 16.2595 17.7604 16.2651 17.8486 16.2659L17.867 16.266C18.4687 16.266 18.8251 15.989 18.926 15.4427C18.9289 15.4272 18.9311 15.4123 18.9334 15.4029C19.746 12.7923 22.13 11.0384 24.8655 11.0384C28.2915 11.0384 31.0787 13.8257 31.0787 17.2516C31.0787 17.8396 30.9926 18.4344 30.8227 19.0196C30.7401 19.3046 30.7588 19.558 30.8785 19.773C31.0564 20.0925 31.3764 20.1818 31.5302 20.2247L31.5545 20.2315C33.4873 20.7888 34.8372 22.5839 34.8372 24.5969C34.8371 27.1025 32.7986 29.1409 30.293 29.1409Z" fill="#2A2996" stroke="#2A2996" stroke-width="0.4"/>
<path d="M18.3497 20.3618C18.0519 20.2657 17.7064 20.2129 17.3769 20.2129C15.8137 20.2129 14.7219 21.2927 14.7219 22.8387C14.7219 24.3515 15.715 25.3679 17.193 25.3679C17.7819 25.3679 18.2097 25.2404 18.4123 25.1643C18.4816 25.1384 18.6653 25.0693 18.6393 24.7836L18.5686 24.4667C18.5371 24.3205 18.4402 24.2333 18.3096 24.2333C18.2526 24.2333 18.2013 24.2505 18.1676 24.2634C17.9996 24.3278 17.7318 24.4134 17.3478 24.4134C16.458 24.4134 15.8602 23.765 15.8602 22.8C15.8602 21.8081 16.4556 21.1672 17.3768 21.1672C17.6679 21.1672 17.924 21.2106 18.1378 21.2961L18.1489 21.3006C18.1827 21.3146 18.2337 21.3358 18.2937 21.3358C18.3646 21.3358 18.4924 21.3054 18.5522 21.1024L18.6478 20.7776L18.6514 20.7621C18.6817 20.5878 18.5632 20.4307 18.3497 20.3618Z" fill="#2A2996"/>
<path d="M21.7372 20.1934C20.2881 20.1934 19.2759 21.2732 19.2759 22.8193C19.2759 24.3197 20.2562 25.3677 21.6598 25.3677C22.8499 25.3677 24.1308 24.546 24.1308 22.7418C24.1308 21.2412 23.1465 20.1934 21.7372 20.1934ZM21.6986 24.4519C20.9544 24.4519 20.4142 23.753 20.4142 22.7901C20.4142 21.9533 20.8173 21.109 21.7179 21.109C22.7184 21.109 22.9829 22.196 22.9829 22.7708C22.9828 23.7449 22.4428 24.4519 21.6986 24.4519Z" fill="#2A2996"/>
<path d="M27.8567 24.535H26.832C26.6502 24.535 26.7401 24.4465 26.7848 24.4027C27.5872 23.6186 28.1816 22.9303 28.1816 22.0815C28.1816 21.3507 27.7071 20.6133 26.6467 20.6133C26.2316 20.6133 25.8316 20.7301 25.49 20.9512C25.2773 21.0889 25.1973 21.2906 25.2845 21.4668L25.3702 21.6567L25.3764 21.6691C25.4274 21.7645 25.5211 21.8214 25.6271 21.8214C25.738 21.8214 25.8301 21.7616 25.8923 21.7212C26.1022 21.5847 26.3156 21.5155 26.5267 21.5155C26.9658 21.5155 27.1793 21.7246 27.1793 22.1528C27.1737 22.7124 26.719 23.2352 25.6338 24.2683C25.5826 24.3123 25.2832 24.5716 25.1498 24.7407C25.0808 24.8281 25.0825 24.9397 25.0839 25.038L25.0843 25.0774C25.0843 25.3136 25.2863 25.4372 25.4858 25.4372H27.8525C27.8676 25.4388 27.8895 25.4405 27.9152 25.4405C28.173 25.4405 28.2884 25.2758 28.2884 25.1125V24.9048C28.2884 24.6646 28.0722 24.5369 27.8567 24.535Z" fill="#2A2996"/>
</svg>
