<svg width="42" height="42" viewBox="0 0 42 42" fill="none" xmlns="http://www.w3.org/2000/svg">
<circle cx="21" cy="21" r="21" fill="#E4E4E4"/>
<path d="M21.5165 5.30537C21.3219 5.10913 21.0607 4.99713 20.7805 5.00006C20.5042 5.001 20.2398 5.11268 20.0466 5.31017C19.6176 5.74867 9.53906 16.1468 9.53906 24.7561C9.53906 30.9565 14.5836 36.001 20.784 36.001C26.9844 36.001 32.0288 30.9565 32.0288 24.7561C32.0288 16.0068 21.9458 5.73813 21.5165 5.30537ZM20.784 33.9377C15.7211 33.9377 11.6023 29.8189 11.6023 24.7561C11.6023 18.2493 18.4933 10.0819 20.7883 7.54255C23.0869 10.0588 29.9657 18.1434 29.9657 24.7561C29.9656 29.8189 25.8468 33.9377 20.784 33.9377Z" fill="#2A2996"/>
<path d="M17.4502 21.4453C17.2509 21.4453 17.0791 21.5191 16.9536 21.6587C16.8317 21.7939 16.77 21.9868 16.77 22.2319V23.3796H15.1161V22.2319C15.1161 21.9835 15.0524 21.7891 14.9267 21.6543C14.799 21.5175 14.626 21.4453 14.4261 21.4453C14.2215 21.4453 14.048 21.5197 13.9244 21.6606C13.806 21.7956 13.7458 21.9879 13.7458 22.232V25.9556C13.7458 26.1999 13.8066 26.3928 13.9262 26.5286C14.051 26.6705 14.2238 26.7454 14.4261 26.7454C14.624 26.7454 14.7965 26.6726 14.9251 26.5348C15.0518 26.3991 15.1161 26.2042 15.1161 25.9556V24.5725H16.77V25.9556C16.77 26.1999 16.8307 26.3928 16.9503 26.5286C17.0751 26.6705 17.2479 26.7454 17.4502 26.7454C17.6481 26.7454 17.8206 26.6726 17.9492 26.5348C18.0759 26.3991 18.1402 26.2042 18.1402 25.9556V22.232C18.1402 21.9836 18.0765 21.7892 17.9508 21.6544C17.8232 21.5175 17.6501 21.4453 17.4502 21.4453Z" fill="#2A2996"/>
<path d="M21.7489 28.5081C21.6493 28.4304 21.515 28.3909 21.3493 28.3909H20.6121C20.6773 28.3315 20.7613 28.2589 20.8694 28.1706C21.1042 27.9786 21.2673 27.8414 21.368 27.7509C21.4803 27.65 21.59 27.5118 21.6942 27.34C21.8074 27.1532 21.8649 26.9434 21.8649 26.7166C21.8649 26.5702 21.8372 26.4268 21.7824 26.2905C21.7279 26.1545 21.6503 26.0328 21.5518 25.9288C21.4532 25.8245 21.3369 25.7412 21.2039 25.6804C21.0132 25.5956 20.7838 25.5527 20.5223 25.5527C20.3031 25.5527 20.1068 25.5866 19.9389 25.6531C19.7693 25.7205 19.6258 25.8116 19.5122 25.924C19.3993 26.0361 19.3128 26.1637 19.255 26.3032C19.1975 26.4424 19.1684 26.5798 19.1684 26.712C19.1684 26.8907 19.2424 27.0022 19.3045 27.064C19.3934 27.1529 19.5096 27.2 19.6405 27.2C19.829 27.2 19.939 27.1142 19.9982 27.0419C20.0591 26.9676 20.1102 26.87 20.1548 26.7435C20.1946 26.6298 20.2098 26.6002 20.2096 26.6002H20.2095C20.2861 26.4829 20.3784 26.4305 20.5086 26.4305C20.5696 26.4305 20.6236 26.4435 20.6737 26.4702C20.721 26.4954 20.7572 26.5296 20.7844 26.5746C20.8116 26.6195 20.8246 26.6703 20.8246 26.7302C20.8246 26.7906 20.8095 26.8526 20.7785 26.9196C20.7443 26.9934 20.6926 27.0677 20.6246 27.1406C20.5511 27.2194 20.4567 27.2999 20.3475 27.3771C20.2675 27.431 20.1449 27.5344 19.9728 27.693C19.8067 27.8457 19.6187 28.0308 19.4125 28.245C19.3474 28.3141 19.2908 28.4026 19.2397 28.5155C19.1857 28.6347 19.1594 28.734 19.1594 28.8195C19.1594 28.9599 19.2139 29.0878 19.3169 29.1894C19.4207 29.2922 19.5597 29.3442 19.73 29.3442H21.4159C21.5748 29.3442 21.7009 29.2965 21.7905 29.2027C21.8768 29.1127 21.9223 28.9976 21.9223 28.8699C21.9221 28.7215 21.862 28.5965 21.7489 28.5081Z" fill="#2A2996"/>
<path d="M27.2039 22.7065C27.0057 22.3041 26.709 21.989 26.3225 21.7702C25.9414 21.5546 25.4825 21.4453 24.9588 21.4453C24.5731 21.4453 24.2222 21.5072 23.9154 21.6291C23.6042 21.7528 23.3361 21.9344 23.1183 22.1689C22.9016 22.4019 22.7345 22.6869 22.6214 23.0159C22.5102 23.3391 22.4539 23.6978 22.4539 24.0824C22.4539 24.4572 22.5077 24.8118 22.6141 25.1363C22.7226 25.4678 22.8861 25.7563 23.1001 25.9937C23.3157 26.2329 23.5873 26.4205 23.9072 26.5511C24.223 26.6799 24.5833 26.7453 24.9782 26.7453C25.3748 26.7453 25.7337 26.6818 26.0451 26.5562C26.361 26.4288 26.6317 26.2418 26.8497 26.0001C27.0657 25.7605 27.2298 25.4745 27.3373 25.1498C27.4427 24.8314 27.4961 24.4744 27.4961 24.0888C27.4959 23.565 27.3977 23.1 27.2039 22.7065ZM25.9506 24.9384C25.846 25.1585 25.7121 25.3152 25.5412 25.4172C25.3668 25.5213 25.1805 25.5719 24.9715 25.5719C24.81 25.5719 24.6608 25.542 24.5279 25.4832C24.3965 25.425 24.2777 25.3351 24.1749 25.2161C24.0705 25.0956 23.9878 24.9386 23.9289 24.7496C23.8677 24.5536 23.8367 24.329 23.8367 24.0825C23.8367 23.8383 23.8676 23.6169 23.9285 23.4242C23.9877 23.2376 24.0676 23.0844 24.1662 22.9685C24.2639 22.8538 24.377 22.769 24.5119 22.709C24.6471 22.6492 24.7974 22.6188 24.9587 22.6188C25.1898 22.6188 25.3876 22.6723 25.5631 22.7822C25.7363 22.8908 25.867 23.0492 25.9627 23.266C26.0624 23.4923 26.1128 23.7669 26.1128 24.0824C26.1128 24.4237 26.0582 24.7118 25.9506 24.9384Z" fill="#2A2996"/>
</svg>
