<svg width="42" height="42" viewBox="0 0 42 42" fill="none" xmlns="http://www.w3.org/2000/svg">
<circle cx="21" cy="21" r="21" fill="#E4E4E4"/>
<path d="M22.8493 8.75247L20.8138 19.1408L28.1878 19.1649L18.1504 33.2479L20.1859 21.819L12.8124 21.7941L22.8493 8.75247ZM22.8507 7C22.802 7 22.7533 7.00173 22.7055 7.0052C22.387 7.0302 22.1759 7.1336 21.9256 7.29702C21.7847 7.3883 21.6576 7.49831 21.5481 7.62386C21.5152 7.66154 21.4842 7.70072 21.4552 7.74128L11.3461 20.7373C10.9469 21.2688 10.8883 21.9702 11.195 22.5564C11.5012 23.1426 12.1205 23.5142 12.7993 23.519L18.007 23.5558L16.3697 32.9259C16.2141 33.7312 16.6561 34.5338 17.4342 34.8572C17.6603 34.9516 17.9038 35.0002 18.1499 35C18.7169 35 19.1828 34.7424 19.5324 34.2771L29.6541 20.194C30.0533 19.6626 30.1115 18.9603 29.8052 18.3749C29.4989 17.7887 28.8797 17.4172 28.2009 17.4124L22.9932 17.4036L24.6129 9.16471C24.6472 9.02983 24.6645 8.89138 24.6643 8.75244C24.6643 7.80434 23.8871 7.03149 22.9147 7.00082C22.8931 6.99995 22.8718 7 22.8507 7Z" fill="#2A2996"/>
</svg>
