<svg width="26" height="20" viewBox="0 0 26 20" fill="none" xmlns="http://www.w3.org/2000/svg">
<path d="M7.33579 3.13782C7.33579 2.8449 7.58968 2.60749 7.90294 2.60749H21.1618C21.3272 2.60749 21.4843 2.67502 21.592 2.79222C21.6998 2.90948 21.7474 3.06493 21.7225 3.21778L21.156 6.69182C21.1133 6.95427 20.8715 7.1423 20.5961 7.1423C20.5677 7.1423 20.5389 7.14035 20.5099 7.13617C20.2002 7.09203 19.9875 6.82151 20.0347 6.53195L20.5016 3.66814H7.90294C7.58968 3.66814 7.33579 3.43067 7.33579 3.13782ZM11.6416 12.1787H6.61539L4.51986 0.740807C4.47323 0.486193 4.23717 0.300049 3.96084 0.300049H0.867193C0.553941 0.300049 0.300049 0.537457 0.300049 0.830373C0.300049 1.12329 0.553941 1.3607 0.867193 1.3607H3.48261L5.57815 12.7986C5.62547 13.0571 5.86525 13.2395 6.13647 13.2395C6.16823 13.2394 6.20056 13.237 6.23289 13.2318C6.23515 13.2314 6.23736 13.231 6.23963 13.2306C6.27303 13.2364 6.3075 13.2393 6.34266 13.2393H11.6416C11.9549 13.2393 12.2088 13.0019 12.2088 12.709C12.2088 12.4161 11.9549 12.1787 11.6416 12.1787ZM10.5454 15.9316V16.8727C10.5454 17.7573 9.77578 18.4769 8.82978 18.4769C7.88378 18.4769 7.11417 17.7573 7.11417 16.8727V15.9316C7.11417 15.047 7.88372 14.3274 8.82965 14.3274C9.77571 14.3274 10.5454 15.047 10.5454 15.9316ZM9.4111 15.9316C9.4111 15.6319 9.15034 15.388 8.82978 15.388H8.82965C8.50922 15.388 8.24846 15.6319 8.24846 15.9316V16.8727C8.24846 17.1724 8.50922 17.4163 8.82965 17.4163C9.15028 17.4163 9.4111 17.1724 9.4111 16.8727V15.9316ZM25.2216 10.9853C24.887 13.4994 23.5253 15.7412 21.3874 17.2977C19.5882 18.6075 17.4204 19.3 15.1762 19.3C14.7537 19.3 14.3286 19.2755 13.9026 19.2259C13.5463 19.1843 13.1871 19.1242 12.8346 19.0471C12.5981 18.9955 12.423 18.8087 12.3993 18.5826C12.3257 17.8828 12.3356 17.1729 12.4289 16.4725C13.12 11.2824 18.1978 7.58535 23.7481 8.23176C24.1048 8.27336 24.464 8.33352 24.816 8.41048C25.0524 8.46222 25.2274 8.64889 25.2513 8.87481C25.3251 9.57425 25.3151 10.2844 25.2216 10.9853ZM24.1535 9.36394C23.9718 9.33218 23.7894 9.30555 23.6077 9.28434C18.6786 8.71064 14.1682 11.9939 13.5544 16.6036C13.5194 16.8665 13.4976 17.1308 13.489 17.3954L18.6775 13.1448C18.913 12.9518 19.2714 12.9739 19.4778 13.1942C19.6842 13.4145 19.6605 13.7496 19.4249 13.9426L14.2355 18.1939C16.5574 18.418 18.8427 17.8059 20.6904 16.4607C22.5893 15.0783 23.7987 13.0872 24.0959 10.8542C24.162 10.3594 24.1812 9.85974 24.1535 9.36394Z" fill="#01005B" stroke="#01005B" stroke-width="0.6"/>
</svg>
