<svg width="28" height="28" viewBox="0 0 28 28" fill="none" xmlns="http://www.w3.org/2000/svg">
<path d="M13.8 0.800049V26.8" stroke="#15005B" stroke-width="1.6" stroke-miterlimit="10" stroke-linecap="round" stroke-linejoin="round"/>
<path d="M13.7998 20.7998C9.9298 20.7998 6.7998 17.6698 6.7998 13.7998C6.7998 9.9298 9.9298 6.7998 13.7998 6.7998" stroke="#15005B" stroke-width="1.6" stroke-miterlimit="10" stroke-linecap="round" stroke-linejoin="round"/>
<path d="M4.60986 4.6106L6.72986 6.7306" stroke="#15005B" stroke-width="1.6" stroke-miterlimit="10" stroke-linecap="round" stroke-linejoin="round"/>
<path d="M0.800049 13.8H3.80005" stroke="#15005B" stroke-width="1.6" stroke-miterlimit="10" stroke-linecap="round" stroke-linejoin="round"/>
<path d="M4.60986 22.9901L6.72986 20.8701" stroke="#15005B" stroke-width="1.6" stroke-miterlimit="10" stroke-linecap="round" stroke-linejoin="round"/>
<path d="M13.8 10.3498C15 8.2298 17.28 6.7998 19.89 6.7998C20.05 6.7998 20.2 6.80981 20.36 6.81981C18.69 7.69981 17.56 9.4498 17.56 11.4598C17.56 14.3598 19.91 16.7098 22.81 16.7098C24.41 16.7098 25.84 15.9898 26.8 14.8598C26.28 18.2298 23.39 20.7998 19.89 20.7998C17.28 20.7998 15 19.3698 13.8 17.2498" stroke="#15005B" stroke-width="1.6" stroke-miterlimit="10" stroke-linecap="round" stroke-linejoin="round"/>
</svg>
