<svg width="22" height="18" viewBox="0 0 22 18" fill="none" xmlns="http://www.w3.org/2000/svg">
<path d="M2.00902 4.56956C4.14419 2.74527 5.83081 1.30286 10.4079 3.87633C12.6066 5.11198 14.38 5.579 15.8552 5.57657C18.4402 5.57657 20.1158 4.14633 21.5641 2.90946C21.8127 2.69426 21.9673 2.39118 21.9951 2.06448C22.0229 1.73777 21.9218 1.41312 21.7132 1.15935C21.6114 1.03482 21.4856 0.931869 21.3431 0.85658C21.2007 0.781292 21.0445 0.735197 20.8838 0.721023C20.7232 0.706849 20.5613 0.724884 20.4077 0.77406C20.2542 0.823237 20.1121 0.902556 19.9899 1.00733C17.856 2.83405 16.1681 4.27646 11.591 1.70056C5.5436 -1.69627 2.71056 0.723953 0.434842 2.66986C0.186433 2.88523 0.0320662 3.18839 0.00445994 3.51509C-0.0231463 3.84179 0.0781781 4.16635 0.286957 4.41997C0.388793 4.54428 0.514655 4.64701 0.657094 4.72206C0.799533 4.79711 0.955655 4.84297 1.11622 4.85692C1.27678 4.87087 1.43853 4.85262 1.59188 4.80326C1.74524 4.75391 1.88708 4.67444 2.00902 4.56956ZM19.9899 7.21843C17.856 9.04272 16.1681 10.4876 11.591 7.91166C5.5436 4.5124 2.71056 6.93384 0.434842 8.87854C0.186433 9.09391 0.0320662 9.39707 0.00445994 9.72377C-0.0231463 10.0505 0.0781781 10.375 0.286957 10.6286C0.388617 10.7531 0.514344 10.8561 0.656695 10.9313C0.799046 11.0066 0.955127 11.0527 1.1157 11.0669C1.27627 11.081 1.43807 11.063 1.59151 11.0139C1.74495 10.9647 1.88693 10.8854 2.00902 10.7807C4.14419 8.95516 5.83081 7.51275 10.4079 10.085C12.6066 11.3231 14.38 11.7877 15.8552 11.7877C18.4402 11.7877 20.1158 10.3574 21.5641 9.11813C21.8129 8.90331 21.9676 8.6004 21.9955 8.27381C22.0233 7.94722 21.922 7.62269 21.7132 7.36924C21.6114 7.24466 21.4856 7.14167 21.3431 7.0664C21.2006 6.99113 21.0443 6.94509 20.8836 6.93103C20.7229 6.91696 20.561 6.93515 20.4075 6.98452C20.2539 7.03389 20.1119 7.11343 19.9899 7.21843ZM19.9899 13.4283C17.856 15.255 16.1681 16.6975 11.591 14.124C5.5436 10.7247 2.71056 13.145 0.434842 15.0909C0.186433 15.3062 0.0320662 15.6094 0.00445994 15.9361C-0.0231463 16.2628 0.0781781 16.5873 0.286957 16.841C0.388693 16.9654 0.514515 17.0683 0.656957 17.1434C0.7994 17.2186 0.95556 17.2645 1.11617 17.2784C1.27679 17.2924 1.43858 17.2741 1.59195 17.2247C1.74533 17.1752 1.88716 17.0956 2.00902 16.9906C4.14419 15.1663 5.83081 13.7251 10.4079 16.2973C12.6066 17.533 14.38 18 15.8552 18C18.4402 18 20.1158 16.5673 21.5641 15.3305C21.8127 15.1153 21.9673 14.8122 21.9951 14.4855C22.0229 14.1588 21.9218 13.8341 21.7132 13.5803C21.6113 13.456 21.4854 13.3531 21.343 13.2779C21.2005 13.2028 21.0444 13.1567 20.8838 13.1425C20.7232 13.1284 20.5613 13.1464 20.4078 13.1954C20.2543 13.2445 20.1122 13.3237 19.9899 13.4283Z" fill="#01005B"/>
</svg>
