<svg width="33" height="33" viewBox="0 0 33 33" fill="none" xmlns="http://www.w3.org/2000/svg">
<path d="M5.8129 13.9141H9.40717M5.8129 19.0347H9.40717M3 16.4744H9.40717" stroke="#676869" stroke-width="1.1"/>
<circle cx="16.5" cy="16.5" r="16.5" fill="#666666" fill-opacity="0.1"/>
<path d="M19.8527 21.2459H14.9189V20.4991H19.1059V11.7468H9.82465V20.4991H11.3842V21.2459H9.07788V11H19.8527V21.2459Z" fill="#676869" stroke="#676869" stroke-width="0.5"/>
<path d="M27.0002 21.2462H24.6381V20.4995H26.2534V17.0933L22.9856 13.404H19.8527V20.4995H21.1041V21.2462H19.106V12.6572H23.3218L27.0002 16.81V21.2462Z" fill="#676869" stroke="#676869" stroke-width="0.5"/>
<path d="M22.8935 23.6806C21.6647 23.6806 20.6653 22.681 20.6653 21.4524C20.6653 20.2237 21.6647 19.2241 22.8935 19.2241C24.1223 19.2241 25.1221 20.2237 25.1221 21.4524C25.1221 22.681 24.1223 23.6806 22.8935 23.6806ZM22.8935 19.9709C22.0768 19.9709 21.412 20.6354 21.412 21.4524C21.412 22.2693 22.0768 22.9338 22.8935 22.9338C23.7106 22.9338 24.3754 22.2693 24.3754 21.4524C24.3754 20.6354 23.7106 19.9709 22.8935 19.9709Z" fill="#676869" stroke="#676869" stroke-width="0.5"/>
<path d="M13.1841 23.6806C11.9553 23.6806 10.9558 22.681 10.9558 21.4524C10.9558 20.2237 11.9553 19.2241 13.1841 19.2241C14.4128 19.2241 15.4123 20.2237 15.4123 21.4524C15.4123 22.681 14.4129 23.6806 13.1841 23.6806ZM13.1841 19.9709C12.3673 19.9709 11.7025 20.6354 11.7025 21.4524C11.7025 22.2693 12.3673 22.9338 13.1841 22.9338C14.0008 22.9338 14.6655 22.2693 14.6655 21.4524C14.6655 20.6354 14.0008 19.9709 13.1841 19.9709Z" fill="#676869" stroke="#676869" stroke-width="0.5"/>
</svg>
