<svg width="33" height="33" viewBox="0 0 33 33" fill="none" xmlns="http://www.w3.org/2000/svg">
<circle cx="16.5" cy="16.5" r="16.5" fill="#666666" fill-opacity="0.1"/>
<path d="M16.3511 26C16.2928 26 16.2345 25.991 16.1783 25.973C14.29 25.3681 12.6824 24.208 11.4 22.5248C10.3904 21.1996 9.58206 19.5502 8.99747 17.6226C8.01133 14.3712 8 11.4747 8 11.353C8 11.0614 8.22153 10.8173 8.51187 10.7893C8.55559 10.7851 12.9538 10.3335 16.0183 8.10806C16.2167 7.96388 16.4854 7.96405 16.6839 8.10812C19.7475 10.3335 24.1463 10.7851 24.1903 10.7894C24.4805 10.8177 24.7019 11.0616 24.7019 11.353C24.7019 11.4747 24.6906 14.3712 23.7045 17.6226C23.1199 19.5503 22.3115 21.1996 21.302 22.5248C20.0196 24.208 18.412 25.3682 16.5238 25.9731C16.4676 25.991 16.4093 26 16.3511 26ZM9.14884 11.8498C9.1959 12.8003 9.37887 14.9892 10.0891 17.3197C11.3013 21.2966 13.4077 23.8248 16.351 24.8371C19.3012 23.8225 21.41 21.2858 22.6206 17.2939C23.3261 14.9679 23.5071 12.7956 23.5534 11.8499C22.2847 11.6647 18.9983 11.0382 16.3509 9.25708C13.7034 11.0381 10.4176 11.6647 9.14884 11.8498Z" fill="#676869" stroke="#676869" stroke-width="0.4"/>
<path d="M16.0485 19.758C15.9142 19.758 15.7835 19.7102 15.6805 19.6221L13.6326 17.8708C13.3949 17.6675 13.367 17.3101 13.5702 17.0723C13.7734 16.8346 14.1309 16.8066 14.3686 17.01L15.9613 18.372L19.118 14.2313C19.3076 13.9826 19.6629 13.9346 19.9117 14.1243C20.1604 14.3139 20.2083 14.6693 20.0187 14.918L16.4989 19.535C16.4045 19.6588 16.2633 19.7383 16.1084 19.7548C16.0884 19.7569 16.0684 19.758 16.0485 19.758Z" fill="#676869" stroke="#676869" stroke-width="0.4"/>
</svg>
