<svg width="33" height="33" viewBox="0 0 33 33" fill="none" xmlns="http://www.w3.org/2000/svg">
<circle cx="16.5" cy="16.5" r="16.5" fill="#666666" fill-opacity="0.1"/>
<path d="M11.91 11.5391C11.91 11.277 12.1233 11.0646 12.3864 11.0646H23.5239C23.6628 11.0646 23.7948 11.125 23.8853 11.2298C23.9758 11.3348 24.0158 11.4738 23.9949 11.6106L23.519 14.7189C23.4831 14.9538 23.28 15.122 23.0487 15.122C23.0248 15.122 23.0006 15.1203 22.9763 15.1165C22.7161 15.077 22.5374 14.835 22.5771 14.5759L22.9693 12.0136H12.3864C12.1233 12.0136 11.91 11.8011 11.91 11.5391ZM15.5269 19.6283H11.3049L9.54464 9.39436C9.50547 9.16655 9.30718 9 9.07507 9H6.4764C6.21327 9 6 9.21242 6 9.4745C6 9.73658 6.21327 9.949 6.4764 9.949H8.67335L10.4336 20.1829C10.4734 20.4142 10.6748 20.5774 10.9026 20.5774C10.9293 20.5773 10.9564 20.5751 10.9836 20.5705C10.9855 20.5701 10.9873 20.5698 10.9892 20.5694C11.0173 20.5746 11.0463 20.5772 11.0758 20.5772H15.5269C15.7901 20.5772 16.0033 20.3648 16.0033 20.1027C16.0033 19.8407 15.7901 19.6283 15.5269 19.6283ZM14.6061 22.9861V23.8282C14.6061 24.6196 13.9596 25.2635 13.165 25.2635C12.3703 25.2635 11.7239 24.6196 11.7239 23.8282V22.9861C11.7239 22.1947 12.3703 21.5508 13.1649 21.5508C13.9596 21.5508 14.6061 22.1947 14.6061 22.9861ZM13.6533 22.9861C13.6533 22.7179 13.4342 22.4998 13.165 22.4998H13.1649C12.8957 22.4998 12.6767 22.7179 12.6767 22.9861V23.8282C12.6767 24.0963 12.8957 24.3145 13.1649 24.3145C13.4342 24.3145 13.6533 24.0963 13.6533 23.8282V22.9861ZM26.9341 18.5605C26.653 20.81 25.5092 22.8158 23.7134 24.2084C22.202 25.3804 20.3811 26 18.496 26C18.141 26 17.784 25.978 17.4261 25.9336C17.1268 25.8965 16.8251 25.8426 16.5291 25.7737C16.3304 25.7275 16.1833 25.5603 16.1633 25.3581C16.1016 24.732 16.1099 24.0967 16.1882 23.4701C16.7687 18.8263 21.0341 15.5184 25.6964 16.0968C25.996 16.134 26.2977 16.1878 26.5934 16.2567C26.792 16.303 26.939 16.47 26.959 16.6722C27.021 17.298 27.0126 17.9333 26.9341 18.5605ZM26.0369 17.1098C25.8843 17.0814 25.731 17.0576 25.5785 17.0386C21.4379 16.5253 17.6493 19.4629 17.1337 23.5874C17.1042 23.8226 17.086 24.0591 17.0787 24.2959L21.4371 20.4927C21.6349 20.32 21.9359 20.3397 22.1093 20.5369C22.2827 20.734 22.2628 21.0338 22.0649 21.2065L17.7058 25.0103C19.6562 25.2108 21.5758 24.6631 23.1279 23.4595C24.7229 22.2227 25.7389 20.4411 25.9885 18.4432C26.0441 18.0005 26.0602 17.5534 26.0369 17.1098Z" fill="#676869" stroke="#676869" stroke-width="0.4"/>
</svg>
