<svg width="200" height="36" viewBox="0 0 200 36" fill="none" xmlns="http://www.w3.org/2000/svg">
<path d="M0 35.325V0H15.089C17.7982 0 20.0657 0.373718 21.8914 1.12115C23.729 1.86859 25.1071 2.915 26.0259 4.26039C26.9564 5.60577 27.4217 7.16389 27.4217 8.93474C27.4217 10.2801 27.1331 11.4818 26.5559 12.5397C25.9788 13.5861 25.1837 14.4543 24.1707 15.1442C23.1577 15.8342 21.9857 16.3171 20.6546 16.5931V16.9381C22.1152 17.0071 23.4639 17.3923 24.7007 18.0937C25.9493 18.7952 26.9505 19.7726 27.7044 21.026C28.4583 22.2679 28.8352 23.7397 28.8352 25.4416C28.8352 27.3389 28.3405 29.035 27.351 30.5299C26.3616 32.0133 24.9304 33.1862 23.0576 34.0486C21.1847 34.8995 18.9113 35.325 16.2375 35.325H0ZM8.74597 28.4428H14.1526C16.049 28.4428 17.4448 28.0921 18.34 27.3907C19.247 26.6892 19.7005 25.7118 19.7005 24.4584C19.7005 23.55 19.4826 22.7681 19.0468 22.1126C18.611 21.4457 17.9926 20.934 17.1916 20.5775C16.3906 20.2095 15.4306 20.0255 14.3116 20.0255H8.74597V28.4428ZM8.74597 14.5233H13.5872C14.5413 14.5233 15.3894 14.368 16.1315 14.0576C16.8735 13.7471 17.4507 13.2986 17.863 12.7122C18.287 12.1257 18.4991 11.4185 18.4991 10.5906C18.4991 9.4062 18.0691 8.47478 17.2092 7.79634C16.3494 7.1179 15.1891 6.77868 13.7285 6.77868H8.74597V14.5233Z" fill="black"/>
<path d="M31.2381 0H41.0089L48.6594 14.782H48.9774L56.6279 0H66.3987L53.1649 23.527V35.325H44.4719V23.527L31.2381 0Z" fill="black"/>
<path d="M71.1648 6.93391V0H101.749V6.93391H90.777V35.325H82.1547V6.93391H71.1648Z" fill="black"/>
<path d="M106.021 35.325V0H131.251V6.93391H114.767V14.1783H129.962V21.1295H114.767V28.3911H131.251V35.325H106.021Z" fill="black"/>
<path d="M136.729 35.325V0H161.959V6.93391H145.475V14.1783H160.67V21.1295H145.475V28.3911H161.959V35.325H136.729Z" fill="black"/>
<path d="M176.289 0L182.897 11.1598H183.179L183.462 10.6872L176.289 0Z" fill="black"/>
<path fill-rule="evenodd" clip-rule="evenodd" d="M182.897 11.1598L176.289 0H166.43L177.367 17.6625L166.147 35.325H176.112L182.897 24.0445H183.179L189.964 35.325H200L183.462 10.6872L183.179 11.1598H182.897Z" fill="black"/>
<path d="M191.176 0H200V8.83125H191.176V0Z" fill="black"/>
</svg>
