<svg width="51" height="51" viewBox="0 0 51 51" fill="none" xmlns="http://www.w3.org/2000/svg">
<g clip-path="url(#clip0_1_1513)">
<path d="M14.3529 10.9654C14.3529 10.3264 14.8709 9.80842 15.5099 9.80842H42.5581C42.8954 9.80842 43.2159 9.95574 43.4357 10.2114C43.6555 10.4672 43.7527 10.8064 43.7018 11.1398L42.5462 18.7189C42.4589 19.2915 41.9658 19.7017 41.4039 19.7017C41.3459 19.7017 41.2872 19.6975 41.2281 19.6883C40.5963 19.5921 40.1623 19.0019 40.2586 18.3702L41.2112 12.1224H15.5099C14.8709 12.1224 14.3529 11.6043 14.3529 10.9654ZM23.1368 30.6894H12.8833L8.60841 5.73599C8.51328 5.18051 8.03172 4.77441 7.46802 4.77441H1.15698C0.517939 4.77441 0 5.29235 0 5.93139C0 6.57043 0.517939 7.08837 1.15698 7.08837H6.49243L10.7673 32.0418C10.8639 32.6056 11.353 33.0036 11.9063 33.0036C11.9711 33.0035 12.037 32.9981 12.103 32.9868C12.1076 32.9859 12.1121 32.9851 12.1167 32.9842C12.1849 32.9968 12.2552 33.0032 12.3269 33.0032H23.1368C23.7758 33.0032 24.2938 32.4853 24.2938 31.8462C24.2938 31.2072 23.7758 30.6894 23.1368 30.6894ZM20.9005 38.8768V40.9299C20.9005 42.8597 19.3305 44.4298 17.4007 44.4298C15.4708 44.4298 13.9008 42.8597 13.9008 40.9299V38.8768C13.9008 36.947 15.4707 35.3769 17.4004 35.3769C19.3304 35.3769 20.9005 36.947 20.9005 38.8768ZM18.5866 38.8768C18.5866 38.2228 18.0546 37.6909 17.4007 37.6909H17.4004C16.7467 37.6909 16.2148 38.2228 16.2148 38.8768V40.9299C16.2148 41.5837 16.7467 42.1158 17.4004 42.1158C18.0545 42.1158 18.5866 41.5837 18.5866 40.9299V38.8768ZM50.8401 28.0858C50.1573 33.5706 47.3796 38.4614 43.0182 41.857C39.3478 44.7146 34.9255 46.2255 30.3473 46.2255C29.4854 46.2255 28.6182 46.1719 27.7492 46.0637C27.0223 45.973 26.2896 45.8418 25.5706 45.6738C25.0881 45.561 24.7309 45.1535 24.6824 44.6604C24.5324 43.1337 24.5526 41.5848 24.7428 40.0568C26.1527 28.734 36.5114 20.6683 47.8341 22.0785C48.5617 22.1693 49.2945 22.3005 50.0126 22.4684C50.4949 22.5813 50.8519 22.9886 50.9005 23.4814C51.051 25.0074 51.0307 26.5565 50.8401 28.0858ZM48.661 24.5485C48.2905 24.4793 47.9182 24.4212 47.5477 24.3749C37.4922 23.1233 28.2911 30.2861 27.0389 40.3428C26.9674 40.9164 26.9231 41.4931 26.9055 42.0703L37.49 32.797C37.9704 32.376 38.7015 32.4241 39.1226 32.9049C39.5436 33.3854 39.4954 34.1165 39.0148 34.5375L28.4283 43.8123C33.1651 44.3012 37.8269 42.9658 41.5964 40.0311C45.47 37.0152 47.9374 32.6713 48.5436 27.7998C48.6785 26.7203 48.7175 25.6302 48.661 24.5485Z" fill="#01005B"/>
</g>
<defs>
<clipPath id="clip0_1_1513">
<rect width="51" height="51" fill="white"/>
</clipPath>
</defs>
</svg>
