<svg width="69" height="49" viewBox="0 0 69 49" fill="none" xmlns="http://www.w3.org/2000/svg">
<path d="M9 14.5H20.5M9 28.5H20.5M0 21.5H20.5" stroke="#01005B" stroke-width="2"/>
<g clip-path="url(#clip0_1_1501)">
<path d="M48.9586 35.1781H35.4695V33.1364H46.9169V9.20723H21.5417V33.1364H25.8055V35.1781H19.5V7.16553H48.9586V35.1781Z" fill="#01005B"/>
<path d="M68.5001 35.1779H62.0421V33.1362H66.4584V23.8237L57.5241 13.7369H48.9587V33.1362H52.3801V35.1779H46.917V11.6953H58.4432L68.5001 23.0491V35.1779Z" fill="#01005B"/>
<path d="M57.2728 41.8345C53.9131 41.8345 51.1807 39.1015 51.1807 35.7425C51.1807 32.3833 53.9132 29.6504 57.2728 29.6504C60.6323 29.6504 63.3658 32.3834 63.3658 35.7425C63.3659 39.1015 60.6324 41.8345 57.2728 41.8345ZM57.2728 31.692C55.0397 31.692 53.2223 33.5089 53.2223 35.7425C53.2223 37.9761 55.0397 39.7929 57.2728 39.7929C59.5068 39.7929 61.3242 37.9761 61.3242 35.7425C61.3242 33.5088 59.5068 31.692 57.2728 31.692Z" fill="#01005B"/>
<path d="M30.7261 41.8345C27.3665 41.8345 24.634 39.1015 24.634 35.7425C24.634 32.3833 27.3666 29.6504 30.7261 29.6504C34.0856 29.6504 36.8181 32.3834 36.8181 35.7425C36.8181 39.1015 34.0857 41.8345 30.7261 41.8345ZM30.7261 31.692C28.493 31.692 26.6756 33.5089 26.6756 35.7425C26.6756 37.9761 28.493 39.7929 30.7261 39.7929C32.9591 39.7929 34.7764 37.9761 34.7764 35.7425C34.7765 33.5088 32.9592 31.692 30.7261 31.692Z" fill="#01005B"/>
</g>
<defs>
<clipPath id="clip0_1_1501">
<rect width="49" height="49" fill="white" transform="translate(19.5)"/>
</clipPath>
</defs>
</svg>
