<svg width="60" height="60" viewBox="0 0 60 60" fill="none" xmlns="http://www.w3.org/2000/svg">
<path d="M30 5.625V54.375" stroke="#15005B" stroke-width="2" stroke-miterlimit="10" stroke-linecap="round" stroke-linejoin="round"/>
<path d="M30 43.125C22.7438 43.125 16.875 37.2562 16.875 30C16.875 22.7438 22.7438 16.875 30 16.875" stroke="#15005B" stroke-width="2" stroke-miterlimit="10" stroke-linecap="round" stroke-linejoin="round"/>
<path d="M12.7688 12.7686L16.7438 16.7436" stroke="#15005B" stroke-width="2" stroke-miterlimit="10" stroke-linecap="round" stroke-linejoin="round"/>
<path d="M5.625 30H11.25" stroke="#15005B" stroke-width="2" stroke-miterlimit="10" stroke-linecap="round" stroke-linejoin="round"/>
<path d="M12.7688 47.2314L16.7438 43.2563" stroke="#15005B" stroke-width="2" stroke-miterlimit="10" stroke-linecap="round" stroke-linejoin="round"/>
<path d="M30 23.5313C32.25 19.5563 36.525 16.875 41.4188 16.875C41.7188 16.875 42 16.8938 42.3 16.9125C39.1687 18.5625 37.05 21.8437 37.05 25.6125C37.05 31.05 41.4563 35.4562 46.8938 35.4562C49.8938 35.4562 52.575 34.1062 54.375 31.9875C53.4 38.3062 47.9813 43.125 41.4188 43.125C36.525 43.125 32.25 40.4438 30 36.4688" stroke="#15005B" stroke-width="2" stroke-miterlimit="10" stroke-linecap="round" stroke-linejoin="round"/>
</svg>
